<svg xmlns="http://www.w3.org/2000/svg" width="512" height="512" viewBox="0 0 512 512" style="overflow: visible" data-bbox="30.321587850611962 52.35339158024496 451.356824298776 179.83395119951004">
        
        <g transform="matrix(0.2860518991947174, 0, 0, 0.2860518991947174, 185.76014709472656, 27.595600128173828)" data-uid="o_f99d9g9kb_9">
          <svg id="OBJECTS" xmlns="http://www.w3.org/2000/svg" viewBox="0 0 500 500" width="500" height="500" data-uid="o_f99d9g9kb_10">
            <path class="cls-1" fill="#af8ae2" data-type="rect" data-x="118.17" data-y="148.48" data-width="267.42" data-height="195.42" d="M118.17 148.48H385.59000000000003 V343.9 H118.17 Z" data-uid="o_f99d9g9kb_11"></path>
            <g data-uid="o_f99d9g9kb_12">
              <path class="cls-1" d="m445.95 252.27h-12.72v-101.14c0-28.6-23.26-51.86-51.86-51.86H119.74c-28.59 0-51.86 23.26-51.86 51.86v101.14h-12.72v-101.14c0-35.61 28.97-64.58 64.58-64.58h261.63c35.61 0 64.58 28.97 64.58 64.58v101.14Z" fill="#af8ae2" data-uid="o_f99d9g9kb_13"></path>
              <path class="cls-2" d="m381.34 130.96H119.77c-11.57 0-20.94 9.39-20.94 20.94v191.98c0 11.55 9.37 20.92 20.94 20.92h261.57c11.55 0 20.94-9.37 20.94-20.92v-191.98c0-11.55-9.39-20.94-20.94-20.94Zm-7.05 206.09H124.7v-178.33h249.59v178.33Z" fill="#fff" data-uid="o_f99d9g9kb_14"></path>
              <path class="cls-1" d="m439.27 413.44H60.73c-17.6 0-31.87-14.27-31.87-31.87h442.26c0 17.6-14.27 31.87-31.87 31.87Z" fill="#af8ae2" data-uid="o_f99d9g9kb_15"></path>
              <path class="cls-2" d="m33.91 195.61h47.28v109.08h-47.28c-2.78 0-5.04-2.26-5.04-5.04v-99c0-2.78 2.26-5.04 5.04-5.04Z" fill="#fff" data-uid="o_f99d9g9kb_16"></path>
              <path class="cls-2" d="m423.85 195.61h47.28v109.08h-47.28c-2.78 0-5.04-2.26-5.04-5.04v-99c0-2.78 2.26-5.04 5.04-5.04Z" transform="matrix(-1, 1.2246468525851679e-16, -1.2246468525851679e-16, -1, 889.9500122070312, 500.29998779296875)" fill="#fff" data-uid="o_f99d9g9kb_17"></path>
            </g>
            <g data-uid="o_f99d9g9kb_18">
              <path class="cls-3" d="m181.27 266.18h0c-8.33 0-15.08-6.75-15.08-15.08v-34.24c0-8.33 6.75-15.08 15.08-15.08h0c8.33 0 15.08 6.75 15.08 15.08v34.24c0 8.33-6.75 15.08-15.08 15.08Z" fill="#3b2d4c" data-uid="o_f99d9g9kb_19"></path>
              <path class="cls-3" d="m319.84 266.18h0c-8.33 0-15.08-6.75-15.08-15.08v-34.24c0-8.33 6.75-15.08 15.08-15.08h0c8.33 0 15.08 6.75 15.08 15.08v34.24c0 8.33-6.75 15.08-15.08 15.08Z" fill="#3b2d4c" data-uid="o_f99d9g9kb_20"></path>
              <path class="cls-3" d="m251.88 300.97c-20.72 0-37.58-16.86-37.58-37.58h10.07c0 15.17 12.34 27.51 27.51 27.51s27.51-12.34 27.51-27.51h10.07c0 20.72-16.86 37.58-37.58 37.58Z" fill="#3b2d4c" data-uid="o_f99d9g9kb_21"></path>
            </g>
          </svg>
        </g>
        <path text="ScholarshipStatics" fill="#ffffff" space="preserve" text-anchor="middle" offset="0.5" font-scale="contain" font-size="48" font-family="Fjalla One" transform="matrix(1.310445785522461, 0, 0, 1.0550353527069092, 255.82965087890625, 205.5546875)" data-fl-textpath="" font-style="normal" font-weight="400" data-uid="o_f99d9g9kb_22" d="M-172.085-8.11L-172.085-8.11Q-172.085-9.4 -171.935-10.49Q-171.785-11.58 -171.485-12.84L-171.485-12.84L-166.765-12.84L-166.765-10.9Q-166.765-9.28 -166.575-8.04Q-166.375-6.8 -165.915-5.94Q-165.455-5.09 -164.695-4.65Q-163.935-4.22 -162.835-4.22L-162.835-4.22Q-161.095-4.22 -160.185-5.17Q-159.265-6.12 -159.265-7.95L-159.265-7.95Q-159.265-8.88 -159.395-9.67Q-159.525-10.45 -159.845-11.23Q-160.165-12 -160.695-12.86Q-161.235-13.71 -162.085-14.77L-162.085-14.77L-168.415-22.29Q-170.095-24.45 -171.015-26.64Q-171.925-28.83 -171.925-31.31L-171.925-31.31Q-171.925-33.3 -171.305-34.97Q-170.685-36.63 -169.515-37.84Q-168.335-39.05 -166.615-39.71Q-164.895-40.38 -162.715-40.38L-162.715-40.38Q-160.065-40.38 -158.295-39.63Q-156.525-38.88 -155.475-37.66Q-154.415-36.45 -153.985-34.93Q-153.555-33.42 -153.555-31.9L-153.555-31.9Q-153.555-30.61 -153.755-29.52Q-153.945-28.43 -154.205-27.12L-154.205-27.12L-158.895-27.12L-158.895-29.02Q-158.895-32.2 -159.805-33.9Q-160.725-35.6 -162.785-35.6L-162.785-35.6Q-164.495-35.6 -165.335-34.65Q-166.185-33.7 -166.185-32.11L-166.185-32.11Q-166.185-31.27 -166.055-30.59Q-165.925-29.91 -165.675-29.33Q-165.435-28.76 -165.085-28.22Q-164.735-27.68 -164.285-27.09L-164.285-27.09L-157.235-18.56Q-155.305-16.05 -154.275-13.75Q-153.245-11.44 -153.245-8.86L-153.245-8.86Q-153.245-6.73 -153.915-5.02Q-154.585-3.3 -155.825-2.11Q-157.065-0.91 -158.825-0.27Q-160.585 0.38 -162.785 0.38L-162.785 0.38Q-165.505 0.38 -167.295-0.35Q-169.085-1.08 -170.155-2.27Q-171.225-3.47 -171.655-4.99Q-172.085-6.52 -172.085-8.11ZM-140.989 0.35L-140.989 0.35Q-145.069 0.35 -147.209-3Q-149.359-6.35 -149.359-13.22L-149.359-13.22L-149.359-19.31Q-149.359-22.38 -148.909-24.57Q-148.469-26.77 -147.729-28.25Q-146.989-29.74 -146.039-30.61Q-145.089-31.48 -144.079-31.93Q-143.079-32.39 -142.089-32.52Q-141.109-32.65 -140.289-32.65L-140.289-32.65Q-138.649-32.65 -137.289-32.21Q-135.929-31.78 -134.939-30.9Q-133.959-30.02 -133.419-28.69Q-132.879-27.35 -132.879-25.55L-132.879-25.55Q-132.879-24.42 -132.989-23.61Q-133.089-22.8 -133.279-22.05L-133.279-22.05L-138.009-22.05L-138.009-23.13Q-138.009-25.57 -138.589-26.94Q-139.159-28.31 -140.469-28.31L-140.469-28.31Q-141.199-28.31 -141.739-27.97Q-142.279-27.63 -142.639-26.81Q-143.009-25.99 -143.179-24.61Q-143.359-23.23 -143.359-21.14L-143.359-21.14L-143.359-11.98Q-143.359-9.87 -143.219-8.39Q-143.079-6.91 -142.719-5.99Q-142.369-5.06 -141.789-4.64Q-141.199-4.22 -140.329-4.22L-140.329-4.22Q-139.889-4.22 -139.469-4.44Q-139.039-4.66 -138.729-5.18Q-138.409-5.7 -138.209-6.55Q-138.009-7.41 -138.009-8.67L-138.009-8.67L-138.009-9.68L-132.899-9.68L-132.899-8.44Q-132.899-3.84 -134.929-1.75Q-136.959 0.35 -140.989 0.35ZM-128.095 0L-128.095-42.63L-122.165-42.63L-122.165-35.04L-122.475-29.51Q-121.815-30.42 -121.055-31.02Q-120.295-31.62 -119.485-31.98Q-118.675-32.34 -117.845-32.5Q-117.015-32.65 -116.195-32.65L-116.195-32.65Q-113.355-32.65 -111.825-30.67Q-110.285-28.69 -110.285-24.73L-110.285-24.73L-110.285 0L-116.215 0L-116.215-24.52Q-116.215-26.65 -116.875-27.48Q-117.525-28.31 -118.795-28.31L-118.795-28.31Q-119.685-28.31 -120.585-27.71Q-121.485-27.12 -122.165-26.06L-122.165-26.06L-122.165 0L-128.095 0ZM-96.011 0.35L-96.011 0.35Q-97.041 0.35 -98.111 0.19Q-99.171 0.02 -100.171-0.49Q-101.171-1.01 -102.051-1.97Q-102.921-2.93 -103.581-4.5Q-104.241-6.07 -104.611-8.37Q-104.991-10.66 -104.991-13.85L-104.991-13.85L-104.991-18.91Q-104.991-22.05 -104.601-24.29Q-104.211-26.53 -103.551-28.05Q-102.881-29.58 -101.991-30.48Q-101.101-31.38 -100.101-31.86Q-99.101-32.34 -98.051-32.5Q-96.991-32.65 -95.991-32.65L-95.991-32.65Q-95.031-32.65 -93.991-32.51Q-92.961-32.37 -91.981-31.91Q-90.991-31.45 -90.121-30.55Q-89.241-29.65 -88.571-28.13Q-87.901-26.6 -87.511-24.34Q-87.131-22.08 -87.131-18.91L-87.131-18.91L-87.131-13.85Q-87.131-10.71 -87.531-8.44Q-87.921-6.16 -88.601-4.59Q-89.281-3.02 -90.171-2.05Q-91.061-1.08 -92.051-0.54Q-93.031 0 -94.051 0.18Q-95.071 0.35 -96.011 0.35ZM-95.961-4.22L-95.961-4.22Q-95.171-4.22 -94.621-4.63Q-94.061-5.04 -93.731-5.98Q-93.391-6.91 -93.231-8.45Q-93.081-9.98 -93.081-12.26L-93.081-12.26L-93.081-20.2Q-93.081-22.48 -93.231-24.02Q-93.391-25.57 -93.731-26.52Q-94.061-27.47 -94.621-27.89Q-95.171-28.31 -95.961-28.31L-95.961-28.31Q-96.811-28.31 -97.381-27.89Q-97.961-27.47 -98.331-26.52Q-98.711-25.57 -98.871-24.02Q-99.031-22.48 -99.031-20.2L-99.031-20.2L-99.031-12.26Q-99.031-9.98 -98.871-8.45Q-98.711-6.91 -98.331-5.98Q-97.961-5.04 -97.381-4.63Q-96.811-4.22 -95.961-4.22ZM-81.786 0L-81.786-42.63L-75.856-42.63L-75.856 0L-81.786 0ZM-65.215 0.35L-65.215 0.35Q-66.715 0.35 -67.875-0.25Q-69.035-0.84 -69.835-1.88Q-70.625-2.91 -71.035-4.32Q-71.445-5.74 -71.445-7.41L-71.445-7.41Q-71.445-9.4 -70.955-10.95Q-70.465-12.49 -69.515-13.73Q-68.565-14.98 -67.165-16Q-65.755-17.02 -63.905-17.93L-63.905-17.93Q-63.015-18.38 -61.895-18.83Q-60.785-19.29 -59.915-19.62L-59.915-19.62L-59.915-23.88Q-59.915-24.82 -59.985-25.63Q-60.055-26.44 -60.325-27.04Q-60.595-27.63 -61.135-27.97Q-61.675-28.31 -62.615-28.31L-62.615-28.31Q-63.245-28.31 -63.845-28.08Q-64.445-27.84 -64.895-27.28Q-65.355-26.72 -65.625-25.78Q-65.895-24.84 -65.895-23.46L-65.895-23.46L-65.895-22.05L-70.415-22.05Q-70.625-22.97 -70.735-23.73Q-70.835-24.49 -70.835-25.24L-70.835-25.24Q-70.835-27.05 -70.215-28.43Q-69.595-29.81 -68.485-30.75Q-67.375-31.69 -65.825-32.17Q-64.275-32.65 -62.425-32.65L-62.425-32.65Q-60.015-32.65 -58.415-32.12Q-56.825-31.59 -55.875-30.54Q-54.925-29.48 -54.535-27.89Q-54.155-26.3 -54.155-24.16L-54.155-24.16L-54.155 0L-58.555 0L-58.985-2.77Q-59.945-1.38 -61.545-0.52Q-63.155 0.35 -65.215 0.35ZM-62.585-4.22L-62.585-4.22Q-61.835-4.22 -61.125-4.61Q-60.415-4.99 -59.915-5.55L-59.915-5.55L-59.915-15.66Q-60.385-15.47 -60.975-15.21Q-61.555-14.95 -62.235-14.53L-62.235-14.53Q-62.875-14.13 -63.485-13.57Q-64.085-13.01 -64.575-12.23Q-65.055-11.46 -65.345-10.49Q-65.635-9.52 -65.635-8.32L-65.635-8.32Q-65.635-6.47 -64.915-5.34Q-64.185-4.22 -62.585-4.22ZM-48.009 0L-48.009-32.27L-43.679-32.27L-43.159-28.99Q-42.179-30.82 -40.899-31.73Q-39.619-32.65 -38.289-32.65L-38.289-32.65Q-35.729-32.65 -34.509-31.08Q-33.289-29.51 -33.289-26.37L-33.289-26.37Q-33.289-25.97 -33.349-25.42Q-33.409-24.87 -33.519-24.27Q-33.619-23.67 -33.769-23.07Q-33.929-22.48 -34.089-21.98L-34.089-21.98L-38.219-21.98L-38.219-24.98Q-38.219-25.97 -38.349-26.6Q-38.469-27.23 -38.679-27.62Q-38.899-28.01 -39.179-28.16Q-39.459-28.31 -39.789-28.31L-39.789-28.31Q-40.489-28.31 -41.089-27.86Q-41.679-27.4 -42.079-26.58L-42.079-26.58L-42.079 0L-48.009 0ZM-30.81-6.75L-30.81-6.75Q-30.81-7.8 -30.61-8.79Q-30.41-9.77 -30.22-10.36L-30.22-10.36L-26.05-10.36Q-26.05-8.6 -25.88-7.42Q-25.7-6.23 -25.3-5.53Q-24.9-4.83 -24.23-4.52Q-23.57-4.22 -22.61-4.22L-22.61-4.22Q-21.27-4.22 -20.66-4.97Q-20.05-5.72 -20.05-6.7L-20.05-6.7Q-20.05-7.22 -20.19-7.69Q-20.33-8.16 -20.59-8.64Q-20.85-9.12 -21.22-9.61Q-21.6-10.1 -22.07-10.69L-22.07-10.69L-26.4-15.8Q-27.25-16.85 -28.03-17.94Q-28.82-19.03 -29.41-20.19Q-30.01-21.35 -30.38-22.62Q-30.74-23.88 -30.74-25.29L-30.74-25.29Q-30.74-27.16 -30.09-28.55Q-29.45-29.93 -28.36-30.84Q-27.27-31.76 -25.84-32.2Q-24.41-32.65 -22.82-32.65L-22.82-32.65Q-21.06-32.65 -19.65-32.23Q-18.25-31.8 -17.24-30.96Q-16.23-30.12 -15.69-28.86Q-15.15-27.61 -15.15-25.95L-15.15-25.95Q-15.15-24.82 -15.35-23.77Q-15.55-22.71 -15.74-21.96L-15.74-21.96L-19.84-21.96Q-19.86-23.55 -19.98-24.75Q-20.1-25.95 -20.41-26.73Q-20.73-27.52 -21.28-27.91Q-21.83-28.31 -22.72-28.31L-22.72-28.31Q-23.5-28.31 -24.01-28.07Q-24.53-27.82 -24.84-27.42Q-25.16-27.02 -25.29-26.53Q-25.42-26.04 -25.42-25.52L-25.42-25.52Q-25.42-24.4 -24.88-23.44Q-24.34-22.48 -23.45-21.35L-23.45-21.35L-18.71-15.8Q-18.2-15.16 -17.52-14.26Q-16.84-13.36 -16.23-12.27Q-15.62-11.18 -15.2-9.89Q-14.78-8.6 -14.78-7.2L-14.78-7.2Q-14.78-5.48 -15.32-4.09Q-15.86-2.7 -16.91-1.71Q-17.96-0.73 -19.5-0.19Q-21.04 0.35 -23 0.35L-23 0.35Q-24.62 0.35 -26.05-0.01Q-27.48-0.38 -28.54-1.21Q-29.59-2.04 -30.2-3.4Q-30.81-4.76 -30.81-6.75ZM-10.11 0L-10.11-42.63L-4.18-42.63L-4.18-35.04L-4.49-29.51Q-3.83-30.42 -3.07-31.02Q-2.31-31.62 -1.5-31.98Q-0.69-32.34  0.14-32.5Q 0.97-32.65  1.79-32.65L 1.79-32.65Q 4.63-32.65  6.16-30.67Q 7.7-28.69  7.7-24.73L 7.7-24.73L 7.7 0L 1.77 0L 1.77-24.52Q 1.77-26.65  1.11-27.48Q 0.46-28.31 -0.81-28.31L-0.81-28.31Q-1.7-28.31 -2.6-27.71Q-3.5-27.12 -4.18-26.06L-4.18-26.06L-4.18 0L-10.11 0ZM 17.003-36.89L 17.003-36.89Q 15.363-36.89  14.413-37.88Q 13.463-38.86  13.463-40.76L 13.463-40.76Q 13.463-41.81  13.713-42.53Q 13.953-43.24  14.413-43.68Q 14.873-44.11  15.523-44.31Q 16.183-44.51  17.023-44.51L 17.023-44.51Q 18.783-44.51  19.703-43.62Q 20.613-42.73  20.613-40.76L 20.613-40.76Q 20.613-38.93  19.683-37.91Q 18.763-36.89  17.003-36.89ZM 13.933 0L 13.933-32.27L 19.863-32.27L 19.863 0L 13.933 0ZM 31.794-2.13L 31.984 1.83L 31.984 10.43L 26.054 10.43L 26.054-32.27L 30.694-32.27L 31.234-28.88Q 31.634-29.53  32.184-30.21Q 32.734-30.89  33.464-31.42Q 34.204-31.95  35.134-32.29Q 36.054-32.63  37.204-32.63L 37.204-32.63Q 37.704-32.63  38.394-32.53Q 39.084-32.44  39.824-32.06Q 40.554-31.69  41.294-30.95Q 42.034-30.21  42.614-28.92Q 43.184-27.63  43.544-25.71Q 43.914-23.79  43.914-21.05L 43.914-21.05L 43.914-11.27Q 43.914-8.53  43.544-6.61Q 43.184-4.69  42.594-3.4Q 42.014-2.11  41.264-1.36Q 40.514-0.61  39.734-0.23Q 38.964 0.14  38.234 0.25Q 37.514 0.35  36.974 0.35L 36.974 0.35Q 35.094 0.35  33.844-0.38Q 32.594-1.1  31.794-2.13L 31.794-2.13ZM 31.984-26.09L 31.984-6.59Q 32.164-6.12  32.434-5.7Q 32.704-5.27  33.074-4.95Q 33.434-4.62  33.894-4.42Q 34.344-4.22  34.954-4.22L 34.954-4.22Q 35.614-4.22  36.154-4.46Q 36.694-4.71  37.094-5.36Q 37.484-6  37.714-7.15Q 37.934-8.3  37.934-10.1L 37.934-10.1L 37.934-22.45Q 37.934-24.26  37.714-25.39Q 37.484-26.53  37.104-27.19Q 36.714-27.84  36.174-28.08Q 35.634-28.31  34.984-28.31L 34.984-28.31Q 33.854-28.31  33.144-27.64Q 32.424-26.98  31.984-26.09L 31.984-26.09ZM 48.087-8.11L 48.087-8.11Q 48.087-9.4  48.237-10.49Q 48.387-11.58  48.687-12.84L 48.687-12.84L 53.407-12.84L 53.407-10.9Q 53.407-9.28  53.597-8.04Q 53.797-6.8  54.257-5.94Q 54.717-5.09  55.477-4.65Q 56.237-4.22  57.337-4.22L 57.337-4.22Q 59.077-4.22  59.987-5.17Q 60.907-6.12  60.907-7.95L 60.907-7.95Q 60.907-8.88  60.777-9.67Q 60.647-10.45  60.327-11.23Q 60.007-12  59.477-12.86Q 58.937-13.71  58.087-14.77L 58.087-14.77L 51.757-22.29Q 50.077-24.45  49.157-26.64Q 48.247-28.83  48.247-31.31L 48.247-31.31Q 48.247-33.3  48.867-34.97Q 49.487-36.63  50.657-37.84Q 51.837-39.05  53.557-39.71Q 55.277-40.38  57.457-40.38L 57.457-40.38Q 60.107-40.38  61.877-39.63Q 63.647-38.88  64.697-37.66Q 65.757-36.45  66.187-34.93Q 66.617-33.42  66.617-31.9L 66.617-31.9Q 66.617-30.61  66.417-29.52Q 66.227-28.43  65.967-27.12L 65.967-27.12L 61.277-27.12L 61.277-29.02Q 61.277-32.2  60.367-33.9Q 59.447-35.6  57.387-35.6L 57.387-35.6Q 55.677-35.6  54.837-34.65Q 53.987-33.7  53.987-32.11L 53.987-32.11Q 53.987-31.27  54.117-30.59Q 54.247-29.91  54.497-29.33Q 54.737-28.76  55.087-28.22Q 55.437-27.68  55.887-27.09L 55.887-27.09L 62.937-18.56Q 64.867-16.05  65.897-13.75Q 66.927-11.44  66.927-8.86L 66.927-8.86Q 66.927-6.73  66.257-5.02Q 65.587-3.3  64.347-2.11Q 63.107-0.91  61.347-0.27Q 59.587 0.38  57.387 0.38L 57.387 0.38Q 54.667 0.38  52.877-0.35Q 51.087-1.08  50.017-2.27Q 48.947-3.47  48.517-4.99Q 48.087-6.52  48.087-8.11ZM 72.343-8.04L 72.343-28.05L 69.833-28.05L 69.833-32.27L 72.853-32.27L 74.053-40.64L 78.273-40.64L 78.273-32.27L 83.423-32.27L 83.423-28.05L 78.273-28.05L 78.273-7.52Q 78.273-6.47  78.473-5.82Q 78.663-5.18  79.023-4.82Q 79.373-4.45  79.843-4.34Q 80.313-4.22  80.823-4.22L 80.823-4.22Q 81.693-4.22  82.363-4.43Q 83.023-4.64  83.633-5.02L 83.633-5.02L 83.633-1.73Q 83.123-1.1  82.523-0.7Q 81.923-0.3  81.293-0.06Q 80.663 0.19  80.003 0.28Q 79.343 0.38  78.713 0.38L 78.713 0.38Q 77.473 0.38  76.323 0.05Q 75.173-0.28  74.283-1.21Q 73.393-2.13  72.863-3.77Q 72.343-5.41  72.343-8.04L 72.343-8.04ZM 91.934 0.35L 91.934 0.35Q 90.434 0.35  89.274-0.25Q 88.114-0.84  87.314-1.88Q 86.524-2.91  86.114-4.32Q 85.704-5.74  85.704-7.41L 85.704-7.41Q 85.704-9.4  86.194-10.95Q 86.684-12.49  87.634-13.73Q 88.584-14.98  89.984-16Q 91.394-17.02  93.244-17.93L 93.244-17.93Q 94.134-18.38  95.254-18.83Q 96.364-19.29  97.234-19.62L 97.234-19.62L 97.234-23.88Q 97.234-24.82  97.164-25.63Q 97.094-26.44  96.824-27.04Q 96.554-27.63  96.014-27.97Q 95.474-28.31  94.534-28.31L 94.534-28.31Q 93.904-28.31  93.304-28.08Q 92.704-27.84  92.254-27.28Q 91.794-26.72  91.524-25.78Q 91.254-24.84  91.254-23.46L 91.254-23.46L 91.254-22.05L 86.734-22.05Q 86.524-22.97  86.414-23.73Q 86.314-24.49  86.314-25.24L 86.314-25.24Q 86.314-27.05  86.934-28.43Q 87.554-29.81  88.664-30.75Q 89.774-31.69  91.324-32.17Q 92.874-32.65  94.724-32.65L 94.724-32.65Q 97.134-32.65  98.734-32.12Q 100.324-31.59  101.274-30.54Q 102.224-29.48  102.614-27.89Q 102.994-26.3  102.994-24.16L 102.994-24.16L 102.994 0L 98.594 0L 98.164-2.77Q 97.204-1.38  95.604-0.52Q 93.994 0.35  91.934 0.35ZM 94.564-4.22L 94.564-4.22Q 95.314-4.22  96.024-4.61Q 96.734-4.99  97.234-5.55L 97.234-5.55L 97.234-15.66Q 96.764-15.47  96.174-15.21Q 95.594-14.95  94.914-14.53L 94.914-14.53Q 94.274-14.13  93.664-13.57Q 93.064-13.01  92.574-12.23Q 92.094-11.46  91.804-10.49Q 91.514-9.52  91.514-8.32L 91.514-8.32Q 91.514-6.47  92.234-5.34Q 92.964-4.22  94.564-4.22ZM 109.82-8.04L 109.82-28.05L 107.31-28.05L 107.31-32.27L 110.33-32.27L 111.53-40.64L 115.75-40.64L 115.75-32.27L 120.9-32.27L 120.9-28.05L 115.75-28.05L 115.75-7.52Q 115.75-6.47  115.95-5.82Q 116.14-5.18  116.5-4.82Q 116.85-4.45  117.32-4.34Q 117.79-4.22  118.3-4.22L 118.3-4.22Q 119.17-4.22  119.84-4.43Q 120.5-4.64  121.11-5.02L 121.11-5.02L 121.11-1.73Q 120.6-1.1  120-0.7Q 119.4-0.3  118.77-0.06Q 118.14 0.19  117.48 0.28Q 116.82 0.38  116.19 0.38L 116.19 0.38Q 114.95 0.38  113.8 0.05Q 112.65-0.28  111.76-1.21Q 110.87-2.13  110.34-3.77Q 109.82-5.41  109.82-8.04L 109.82-8.04ZM 128.12-36.89L 128.12-36.89Q 126.48-36.89  125.53-37.88Q 124.58-38.86  124.58-40.76L 124.58-40.76Q 124.58-41.81  124.83-42.53Q 125.07-43.24  125.53-43.68Q 125.99-44.11  126.64-44.31Q 127.3-44.51  128.14-44.51L 128.14-44.51Q 129.9-44.51  130.82-43.62Q 131.73-42.73  131.73-40.76L 131.73-40.76Q 131.73-38.93  130.8-37.91Q 129.88-36.89  128.12-36.89ZM 125.05 0L 125.05-32.27L 130.98-32.27L 130.98 0L 125.05 0ZM 144.691 0.35L 144.691 0.35Q 140.611 0.35  138.471-3Q 136.321-6.35  136.321-13.22L 136.321-13.22L 136.321-19.31Q 136.321-22.38  136.771-24.57Q 137.211-26.77  137.951-28.25Q 138.691-29.74  139.641-30.61Q 140.591-31.48  141.601-31.93Q 142.601-32.39  143.591-32.52Q 144.571-32.65  145.391-32.65L 145.391-32.65Q 147.031-32.65  148.391-32.21Q 149.751-31.78  150.741-30.9Q 151.721-30.02  152.261-28.69Q 152.801-27.35  152.801-25.55L 152.801-25.55Q 152.801-24.42  152.691-23.61Q 152.591-22.8  152.401-22.05L 152.401-22.05L 147.671-22.05L 147.671-23.13Q 147.671-25.57  147.091-26.94Q 146.521-28.31  145.211-28.31L 145.211-28.31Q 144.481-28.31  143.941-27.97Q 143.401-27.63  143.041-26.81Q 142.671-25.99  142.501-24.61Q 142.321-23.23  142.321-21.14L 142.321-21.14L 142.321-11.98Q 142.321-9.87  142.461-8.39Q 142.601-6.91  142.961-5.99Q 143.311-5.06  143.891-4.64Q 144.481-4.22  145.351-4.22L 145.351-4.22Q 145.791-4.22  146.211-4.44Q 146.641-4.66  146.951-5.18Q 147.271-5.7  147.471-6.55Q 147.671-7.41  147.671-8.67L 147.671-8.67L 147.671-9.68L 152.781-9.68L 152.781-8.44Q 152.781-3.84  150.751-1.75Q 148.721 0.35  144.691 0.35ZM 156.315-6.75L 156.315-6.75Q 156.315-7.8  156.515-8.79Q 156.715-9.77  156.905-10.36L 156.905-10.36L 161.075-10.36Q 161.075-8.6  161.245-7.42Q 161.425-6.23  161.825-5.53Q 162.225-4.83  162.895-4.52Q 163.555-4.22  164.515-4.22L 164.515-4.22Q 165.855-4.22  166.465-4.97Q 167.075-5.72  167.075-6.7L 167.075-6.7Q 167.075-7.22  166.935-7.69Q 166.795-8.16  166.535-8.64Q 166.275-9.12  165.905-9.61Q 165.525-10.1  165.055-10.69L 165.055-10.69L 160.725-15.8Q 159.875-16.85  159.095-17.94Q 158.305-19.03  157.715-20.19Q 157.115-21.35  156.745-22.62Q 156.385-23.88  156.385-25.29L 156.385-25.29Q 156.385-27.16  157.035-28.55Q 157.675-29.93  158.765-30.84Q 159.855-31.76  161.285-32.2Q 162.715-32.65  164.305-32.65L 164.305-32.65Q 166.065-32.65  167.475-32.23Q 168.875-31.8  169.885-30.96Q 170.895-30.12  171.435-28.86Q 171.975-27.61  171.975-25.95L 171.975-25.95Q 171.975-24.82  171.775-23.77Q 171.575-22.71  171.385-21.96L 171.385-21.96L 167.285-21.96Q 167.265-23.55  167.145-24.75Q 167.025-25.95  166.715-26.73Q 166.395-27.52  165.845-27.91Q 165.295-28.31  164.405-28.31L 164.405-28.31Q 163.625-28.31  163.115-28.07Q 162.595-27.82  162.285-27.42Q 161.965-27.02  161.835-26.53Q 161.705-26.04  161.705-25.52L 161.705-25.52Q 161.705-24.4  162.245-23.44Q 162.785-22.48  163.675-21.35L 163.675-21.35L 168.415-15.8Q 168.925-15.16  169.605-14.26Q 170.285-13.36  170.895-12.27Q 171.505-11.18  171.925-9.89Q 172.345-8.6  172.345-7.2L 172.345-7.2Q 172.345-5.48  171.805-4.09Q 171.265-2.7  170.215-1.71Q 169.165-0.73  167.625-0.19Q 166.085 0.35  164.125 0.35L 164.125 0.35Q 162.505 0.35  161.075-0.01Q 159.645-0.38  158.585-1.21Q 157.535-2.04  156.925-3.4Q 156.315-4.76  156.315-6.75Z"></path>
        <path text="Applicable to School of Computer Science, CQUPT" fill="#af8ae2" space="preserve" text-anchor="middle" offset="0.5" font-scale="contain" font-size="48" font-family="Fjalla One" transform="matrix(0.3363587558269501, 0, 0, 0.2708013355731964, 257.5840759277344, 229.36288452148438)" font-style="normal" font-weight="400" data-fl-textpath="" data-uid="o_f99d9g9kb_23" d="M-452.409 0L-445.029-40.03L-438.049-40.03L-430.639 0L-436.779 0L-437.879-7.17L-445.199-7.17L-446.249 0L-452.409 0ZM-444.489-11.74L-438.589-11.74L-441.399-31.69L-441.659-31.69L-444.489-11.74ZM-421.405-2.13L-421.215 1.83L-421.215 10.43L-427.145 10.43L-427.145-32.27L-422.505-32.27L-421.965-28.88Q-421.565-29.53 -421.015-30.21Q-420.465-30.89 -419.735-31.42Q-418.995-31.95 -418.065-32.29Q-417.145-32.63 -415.995-32.63L-415.995-32.63Q-415.495-32.63 -414.805-32.53Q-414.115-32.44 -413.375-32.06Q-412.645-31.69 -411.905-30.95Q-411.165-30.21 -410.585-28.92Q-410.015-27.63 -409.655-25.71Q-409.285-23.79 -409.285-21.05L-409.285-21.05L-409.285-11.27Q-409.285-8.53 -409.655-6.61Q-410.015-4.69 -410.605-3.4Q-411.185-2.11 -411.935-1.36Q-412.685-0.61 -413.465-0.23Q-414.235 0.14 -414.965 0.25Q-415.685 0.35 -416.225 0.35L-416.225 0.35Q-418.105 0.35 -419.355-0.38Q-420.605-1.1 -421.405-2.13L-421.405-2.13ZM-421.215-26.09L-421.215-6.59Q-421.035-6.12 -420.765-5.7Q-420.495-5.27 -420.125-4.95Q-419.765-4.62 -419.305-4.42Q-418.855-4.22 -418.245-4.22L-418.245-4.22Q-417.585-4.22 -417.045-4.46Q-416.505-4.71 -416.105-5.36Q-415.715-6 -415.485-7.15Q-415.265-8.3 -415.265-10.1L-415.265-10.1L-415.265-22.45Q-415.265-24.26 -415.485-25.39Q-415.715-26.53 -416.095-27.19Q-416.485-27.84 -417.025-28.08Q-417.565-28.31 -418.215-28.31L-418.215-28.31Q-419.345-28.31 -420.055-27.64Q-420.775-26.98 -421.215-26.09L-421.215-26.09ZM-398.202-2.13L-398.012 1.83L-398.012 10.43L-403.942 10.43L-403.942-32.27L-399.302-32.27L-398.762-28.88Q-398.362-29.53 -397.812-30.21Q-397.262-30.89 -396.532-31.42Q-395.792-31.95 -394.862-32.29Q-393.942-32.63 -392.792-32.63L-392.792-32.63Q-392.292-32.63 -391.602-32.53Q-390.912-32.44 -390.172-32.06Q-389.442-31.69 -388.702-30.95Q-387.962-30.21 -387.382-28.92Q-386.812-27.63 -386.452-25.71Q-386.082-23.79 -386.082-21.05L-386.082-21.05L-386.082-11.27Q-386.082-8.53 -386.452-6.61Q-386.812-4.69 -387.402-3.4Q-387.982-2.11 -388.732-1.36Q-389.482-0.61 -390.262-0.23Q-391.032 0.14 -391.762 0.25Q-392.482 0.35 -393.022 0.35L-393.022 0.35Q-394.902 0.35 -396.152-0.38Q-397.402-1.1 -398.202-2.13L-398.202-2.13ZM-398.012-26.09L-398.012-6.59Q-397.832-6.12 -397.562-5.7Q-397.292-5.27 -396.922-4.95Q-396.562-4.62 -396.102-4.42Q-395.652-4.22 -395.042-4.22L-395.042-4.22Q-394.382-4.22 -393.842-4.46Q-393.302-4.71 -392.902-5.36Q-392.512-6 -392.282-7.15Q-392.062-8.3 -392.062-10.1L-392.062-10.1L-392.062-22.45Q-392.062-24.26 -392.282-25.39Q-392.512-26.53 -392.892-27.19Q-393.282-27.84 -393.822-28.08Q-394.362-28.31 -395.012-28.31L-395.012-28.31Q-396.142-28.31 -396.852-27.64Q-397.572-26.98 -398.012-26.09L-398.012-26.09ZM-380.649 0L-380.649-42.63L-374.719-42.63L-374.719 0L-380.649 0ZM-365.368-36.89L-365.368-36.89Q-367.008-36.89 -367.958-37.88Q-368.908-38.86 -368.908-40.76L-368.908-40.76Q-368.908-41.81 -368.658-42.53Q-368.418-43.24 -367.958-43.68Q-367.498-44.11 -366.848-44.31Q-366.188-44.51 -365.348-44.51L-365.348-44.51Q-363.588-44.51 -362.668-43.62Q-361.758-42.73 -361.758-40.76L-361.758-40.76Q-361.758-38.93 -362.688-37.91Q-363.608-36.89 -365.368-36.89ZM-368.438 0L-368.438-32.27L-362.508-32.27L-362.508 0L-368.438 0ZM-348.797 0.35L-348.797 0.35Q-352.877 0.35 -355.017-3Q-357.167-6.35 -357.167-13.22L-357.167-13.22L-357.167-19.31Q-357.167-22.38 -356.717-24.57Q-356.277-26.77 -355.537-28.25Q-354.797-29.74 -353.847-30.61Q-352.897-31.48 -351.887-31.93Q-350.887-32.39 -349.897-32.52Q-348.917-32.65 -348.097-32.65L-348.097-32.65Q-346.457-32.65 -345.097-32.21Q-343.737-31.78 -342.747-30.9Q-341.767-30.02 -341.227-28.69Q-340.687-27.35 -340.687-25.55L-340.687-25.55Q-340.687-24.42 -340.797-23.61Q-340.897-22.8 -341.087-22.05L-341.087-22.05L-345.817-22.05L-345.817-23.13Q-345.817-25.57 -346.397-26.94Q-346.967-28.31 -348.277-28.31L-348.277-28.31Q-349.007-28.31 -349.547-27.97Q-350.087-27.63 -350.447-26.81Q-350.817-25.99 -350.987-24.61Q-351.167-23.23 -351.167-21.14L-351.167-21.14L-351.167-11.98Q-351.167-9.87 -351.027-8.39Q-350.887-6.91 -350.527-5.99Q-350.177-5.06 -349.597-4.64Q-349.007-4.22 -348.137-4.22L-348.137-4.22Q-347.697-4.22 -347.277-4.44Q-346.847-4.66 -346.537-5.18Q-346.217-5.7 -346.017-6.55Q-345.817-7.41 -345.817-8.67L-345.817-8.67L-345.817-9.68L-340.707-9.68L-340.707-8.44Q-340.707-3.84 -342.737-1.75Q-344.767 0.35 -348.797 0.35ZM-331.453 0.35L-331.453 0.35Q-332.953 0.35 -334.113-0.25Q-335.273-0.84 -336.073-1.88Q-336.863-2.91 -337.273-4.32Q-337.683-5.74 -337.683-7.41L-337.683-7.41Q-337.683-9.4 -337.193-10.95Q-336.703-12.49 -335.753-13.73Q-334.803-14.98 -333.403-16Q-331.993-17.02 -330.143-17.93L-330.143-17.93Q-329.253-18.38 -328.133-18.83Q-327.023-19.29 -326.153-19.62L-326.153-19.62L-326.153-23.88Q-326.153-24.82 -326.223-25.63Q-326.293-26.44 -326.563-27.04Q-326.833-27.63 -327.373-27.97Q-327.913-28.31 -328.853-28.31L-328.853-28.31Q-329.483-28.31 -330.083-28.08Q-330.683-27.84 -331.133-27.28Q-331.593-26.72 -331.863-25.78Q-332.133-24.84 -332.133-23.46L-332.133-23.46L-332.133-22.05L-336.653-22.05Q-336.863-22.97 -336.973-23.73Q-337.073-24.49 -337.073-25.24L-337.073-25.24Q-337.073-27.05 -336.453-28.43Q-335.833-29.81 -334.723-30.75Q-333.613-31.69 -332.063-32.17Q-330.513-32.65 -328.663-32.65L-328.663-32.65Q-326.253-32.65 -324.653-32.12Q-323.063-31.59 -322.113-30.54Q-321.163-29.48 -320.773-27.89Q-320.393-26.3 -320.393-24.16L-320.393-24.16L-320.393 0L-324.793 0L-325.223-2.77Q-326.183-1.38 -327.783-0.52Q-329.393 0.35 -331.453 0.35ZM-328.823-4.22L-328.823-4.22Q-328.073-4.22 -327.363-4.61Q-326.653-4.99 -326.153-5.55L-326.153-5.55L-326.153-15.66Q-326.623-15.47 -327.213-15.21Q-327.793-14.95 -328.473-14.53L-328.473-14.53Q-329.113-14.13 -329.723-13.57Q-330.323-13.01 -330.813-12.23Q-331.293-11.46 -331.583-10.49Q-331.873-9.52 -331.873-8.32L-331.873-8.32Q-331.873-6.47 -331.153-5.34Q-330.423-4.22 -328.823-4.22ZM-314.247 0L-314.247-42.63L-308.317-42.63L-308.317-34.03L-308.507-29.77L-308.487-29.74Q-308.087-30.3 -307.557-30.82Q-307.027-31.34 -306.367-31.75Q-305.697-32.16 -304.887-32.39Q-304.077-32.63 -303.117-32.63L-303.117-32.63Q-302.627-32.63 -301.937-32.53Q-301.247-32.44 -300.507-32.06Q-299.767-31.69 -299.027-30.95Q-298.287-30.21 -297.717-28.92Q-297.137-27.63 -296.777-25.71Q-296.417-23.79 -296.417-21.05L-296.417-21.05L-296.417-11.27Q-296.417-8.53 -296.777-6.61Q-297.137-4.69 -297.727-3.39Q-298.317-2.09 -299.067-1.34Q-299.817-0.59 -300.587-0.21Q-301.357 0.16 -302.087 0.27Q-302.817 0.38 -303.347 0.38L-303.347 0.38Q-304.477 0.38 -305.377 0.09Q-306.277-0.19 -306.977-0.67Q-307.667-1.15 -308.187-1.76Q-308.717-2.37 -309.117-3L-309.117-3L-309.607 0L-314.247 0ZM-308.317-26.13L-308.317-6.54Q-308.137-6.09 -307.867-5.67Q-307.597-5.25 -307.247-4.93Q-306.887-4.62 -306.417-4.42Q-305.957-4.22 -305.367-4.22L-305.367-4.22Q-304.707-4.22 -304.167-4.46Q-303.637-4.71 -303.237-5.36Q-302.837-6 -302.617-7.15Q-302.387-8.3 -302.387-10.1L-302.387-10.1L-302.387-22.45Q-302.387-24.26 -302.617-25.39Q-302.837-26.53 -303.227-27.19Q-303.607-27.84 -304.147-28.08Q-304.687-28.31 -305.347-28.31L-305.347-28.31Q-306.447-28.31 -307.157-27.67Q-307.877-27.02 -308.317-26.13L-308.317-26.13ZM-290.977 0L-290.977-42.63L-285.047-42.63L-285.047 0L-290.977 0ZM-271.076 0.35L-271.076 0.35Q-273.166 0.35 -274.766-0.42Q-276.376-1.2 -277.476-2.84Q-278.576-4.48 -279.136-7.04Q-279.706-9.61 -279.706-13.22L-279.706-13.22L-279.706-19.31Q-279.706-22.38 -279.246-24.57Q-278.786-26.77 -278.046-28.25Q-277.316-29.74 -276.336-30.61Q-275.366-31.48 -274.336-31.93Q-273.306-32.39 -272.286-32.52Q-271.266-32.65 -270.396-32.65L-270.396-32.65Q-268.806-32.65 -267.326-32.17Q-265.856-31.69 -264.726-30.53Q-263.606-29.37 -262.936-27.42Q-262.266-25.48 -262.266-22.57L-262.266-22.57Q-262.266-21.59 -262.326-20.58Q-262.386-19.57 -262.476-18.6Q-262.566-17.63 -262.726-16.71Q-262.876-15.8 -263.036-15.02L-263.036-15.02L-273.746-15.02L-273.746-11.74Q-273.746-9.63 -273.586-8.19Q-273.426-6.75 -273.036-5.87Q-272.646-4.99 -271.976-4.61Q-271.316-4.22 -270.306-4.22L-270.306-4.22Q-269.766-4.22 -269.246-4.44Q-268.736-4.66 -268.346-5.18Q-267.956-5.7 -267.726-6.55Q-267.496-7.41 -267.496-8.67L-267.496-8.67L-267.496-9.68L-262.546-9.68L-262.546-8.44Q-262.546-3.84 -264.736-1.75Q-266.926 0.35 -271.076 0.35ZM-273.746-19.01L-267.796-19.01Q-267.776-19.27 -267.746-19.7Q-267.726-20.13 -267.716-20.6Q-267.706-21.07 -267.706-21.53Q-267.706-21.98 -267.706-22.31L-267.706-22.31Q-267.706-25.5 -268.456-26.91Q-269.206-28.31 -270.676-28.31L-270.676-28.31Q-271.456-28.31 -272.036-27.95Q-272.626-27.59 -272.996-26.73Q-273.376-25.88 -273.566-24.47Q-273.746-23.06 -273.746-20.98L-273.746-20.98L-273.746-19.01ZM-246.301-8.04L-246.301-28.05L-248.811-28.05L-248.811-32.27L-245.791-32.27L-244.591-40.64L-240.371-40.64L-240.371-32.27L-235.221-32.27L-235.221-28.05L-240.371-28.05L-240.371-7.52Q-240.371-6.47 -240.171-5.82Q-239.981-5.18 -239.621-4.82Q-239.271-4.45 -238.801-4.34Q-238.331-4.22 -237.821-4.22L-237.821-4.22Q-236.951-4.22 -236.281-4.43Q-235.621-4.64 -235.011-5.02L-235.011-5.02L-235.011-1.73Q-235.521-1.1 -236.121-0.7Q-236.721-0.3 -237.351-0.06Q-237.981 0.19 -238.641 0.28Q-239.301 0.38 -239.931 0.38L-239.931 0.38Q-241.171 0.38 -242.321 0.05Q-243.471-0.28 -244.361-1.21Q-245.251-2.13 -245.781-3.77Q-246.301-5.41 -246.301-8.04L-246.301-8.04ZM-223.031 0.35L-223.031 0.35Q-224.061 0.35 -225.131 0.19Q-226.191 0.02 -227.191-0.49Q-228.191-1.01 -229.071-1.97Q-229.941-2.93 -230.601-4.5Q-231.261-6.07 -231.631-8.37Q-232.011-10.66 -232.011-13.85L-232.011-13.85L-232.011-18.91Q-232.011-22.05 -231.621-24.29Q-231.231-26.53 -230.571-28.05Q-229.901-29.58 -229.011-30.48Q-228.121-31.38 -227.121-31.86Q-226.121-32.34 -225.071-32.5Q-224.011-32.65 -223.011-32.65L-223.011-32.65Q-222.051-32.65 -221.011-32.51Q-219.981-32.37 -219.001-31.91Q-218.011-31.45 -217.141-30.55Q-216.261-29.65 -215.591-28.13Q-214.921-26.6 -214.531-24.34Q-214.151-22.08 -214.151-18.91L-214.151-18.91L-214.151-13.85Q-214.151-10.71 -214.551-8.44Q-214.941-6.16 -215.621-4.59Q-216.301-3.02 -217.191-2.05Q-218.081-1.08 -219.071-0.54Q-220.051 0 -221.071 0.18Q-222.091 0.35 -223.031 0.35ZM-222.981-4.22L-222.981-4.22Q-222.191-4.22 -221.641-4.63Q-221.081-5.04 -220.751-5.98Q-220.411-6.91 -220.251-8.45Q-220.101-9.98 -220.101-12.26L-220.101-12.26L-220.101-20.2Q-220.101-22.48 -220.251-24.02Q-220.411-25.57 -220.751-26.52Q-221.081-27.47 -221.641-27.89Q-222.191-28.31 -222.981-28.31L-222.981-28.31Q-223.831-28.31 -224.401-27.89Q-224.981-27.47 -225.351-26.52Q-225.731-25.57 -225.891-24.02Q-226.051-22.48 -226.051-20.2L-226.051-20.2L-226.051-12.26Q-226.051-9.98 -225.891-8.45Q-225.731-6.91 -225.351-5.98Q-224.981-5.04 -224.401-4.63Q-223.831-4.22 -222.981-4.22ZM-199.8-8.11L-199.8-8.11Q-199.8-9.4 -199.65-10.49Q-199.5-11.58 -199.2-12.84L-199.2-12.84L-194.48-12.84L-194.48-10.9Q-194.48-9.28 -194.29-8.04Q-194.09-6.8 -193.63-5.94Q-193.17-5.09 -192.41-4.65Q-191.65-4.22 -190.55-4.22L-190.55-4.22Q-188.81-4.22 -187.9-5.17Q-186.98-6.12 -186.98-7.95L-186.98-7.95Q-186.98-8.88 -187.11-9.67Q-187.24-10.45 -187.56-11.23Q-187.88-12 -188.41-12.86Q-188.95-13.71 -189.8-14.77L-189.8-14.77L-196.13-22.29Q-197.81-24.45 -198.73-26.64Q-199.64-28.83 -199.64-31.31L-199.64-31.31Q-199.64-33.3 -199.02-34.97Q-198.4-36.63 -197.23-37.84Q-196.05-39.05 -194.33-39.71Q-192.61-40.38 -190.43-40.38L-190.43-40.38Q-187.78-40.38 -186.01-39.63Q-184.24-38.88 -183.19-37.66Q-182.13-36.45 -181.7-34.93Q-181.27-33.42 -181.27-31.9L-181.27-31.9Q-181.27-30.61 -181.47-29.52Q-181.66-28.43 -181.92-27.12L-181.92-27.12L-186.61-27.12L-186.61-29.02Q-186.61-32.2 -187.52-33.9Q-188.44-35.6 -190.5-35.6L-190.5-35.6Q-192.21-35.6 -193.05-34.65Q-193.9-33.7 -193.9-32.11L-193.9-32.11Q-193.9-31.27 -193.77-30.59Q-193.64-29.91 -193.39-29.33Q-193.15-28.76 -192.8-28.22Q-192.45-27.68 -192-27.09L-192-27.09L-184.95-18.56Q-183.02-16.05 -181.99-13.75Q-180.96-11.44 -180.96-8.86L-180.96-8.86Q-180.96-6.73 -181.63-5.02Q-182.3-3.3 -183.54-2.11Q-184.78-0.91 -186.54-0.27Q-188.3 0.38 -190.5 0.38L-190.5 0.38Q-193.22 0.38 -195.01-0.35Q-196.8-1.08 -197.87-2.27Q-198.94-3.47 -199.37-4.99Q-199.8-6.52 -199.8-8.11ZM-168.703 0.35L-168.703 0.35Q-172.783 0.35 -174.923-3Q-177.073-6.35 -177.073-13.22L-177.073-13.22L-177.073-19.31Q-177.073-22.38 -176.623-24.57Q-176.183-26.77 -175.443-28.25Q-174.703-29.74 -173.753-30.61Q-172.803-31.48 -171.793-31.93Q-170.793-32.39 -169.803-32.52Q-168.823-32.65 -168.003-32.65L-168.003-32.65Q-166.363-32.65 -165.003-32.21Q-163.643-31.78 -162.653-30.9Q-161.673-30.02 -161.133-28.69Q-160.593-27.35 -160.593-25.55L-160.593-25.55Q-160.593-24.42 -160.703-23.61Q-160.803-22.8 -160.993-22.05L-160.993-22.05L-165.723-22.05L-165.723-23.13Q-165.723-25.57 -166.303-26.94Q-166.873-28.31 -168.183-28.31L-168.183-28.31Q-168.913-28.31 -169.453-27.97Q-169.993-27.63 -170.353-26.81Q-170.723-25.99 -170.893-24.61Q-171.073-23.23 -171.073-21.14L-171.073-21.14L-171.073-11.98Q-171.073-9.87 -170.933-8.39Q-170.793-6.91 -170.433-5.99Q-170.083-5.06 -169.503-4.64Q-168.913-4.22 -168.043-4.22L-168.043-4.22Q-167.603-4.22 -167.183-4.44Q-166.753-4.66 -166.443-5.18Q-166.123-5.7 -165.923-6.55Q-165.723-7.41 -165.723-8.67L-165.723-8.67L-165.723-9.68L-160.613-9.68L-160.613-8.44Q-160.613-3.84 -162.643-1.75Q-164.673 0.35 -168.703 0.35ZM-155.809 0L-155.809-42.63L-149.879-42.63L-149.879-35.04L-150.189-29.51Q-149.529-30.42 -148.769-31.02Q-148.009-31.62 -147.199-31.98Q-146.389-32.34 -145.559-32.5Q-144.729-32.65 -143.909-32.65L-143.909-32.65Q-141.069-32.65 -139.539-30.67Q-137.999-28.69 -137.999-24.73L-137.999-24.73L-137.999 0L-143.929 0L-143.929-24.52Q-143.929-26.65 -144.589-27.48Q-145.239-28.31 -146.509-28.31L-146.509-28.31Q-147.399-28.31 -148.299-27.71Q-149.199-27.12 -149.879-26.06L-149.879-26.06L-149.879 0L-155.809 0ZM-123.726 0.35L-123.726 0.35Q-124.756 0.35 -125.826 0.19Q-126.886 0.02 -127.886-0.49Q-128.886-1.01 -129.766-1.97Q-130.636-2.93 -131.296-4.5Q-131.956-6.07 -132.326-8.37Q-132.706-10.66 -132.706-13.85L-132.706-13.85L-132.706-18.91Q-132.706-22.05 -132.316-24.29Q-131.926-26.53 -131.266-28.05Q-130.596-29.58 -129.706-30.48Q-128.816-31.38 -127.816-31.86Q-126.816-32.34 -125.766-32.5Q-124.706-32.65 -123.706-32.65L-123.706-32.65Q-122.746-32.65 -121.706-32.51Q-120.676-32.37 -119.696-31.91Q-118.706-31.45 -117.836-30.55Q-116.956-29.65 -116.286-28.13Q-115.616-26.6 -115.226-24.34Q-114.846-22.08 -114.846-18.91L-114.846-18.91L-114.846-13.85Q-114.846-10.71 -115.246-8.44Q-115.636-6.16 -116.316-4.59Q-116.996-3.02 -117.886-2.05Q-118.776-1.08 -119.766-0.54Q-120.746 0 -121.766 0.18Q-122.786 0.35 -123.726 0.35ZM-123.676-4.22L-123.676-4.22Q-122.886-4.22 -122.336-4.63Q-121.776-5.04 -121.446-5.98Q-121.106-6.91 -120.946-8.45Q-120.796-9.98 -120.796-12.26L-120.796-12.26L-120.796-20.2Q-120.796-22.48 -120.946-24.02Q-121.106-25.57 -121.446-26.52Q-121.776-27.47 -122.336-27.89Q-122.886-28.31 -123.676-28.31L-123.676-28.31Q-124.526-28.31 -125.096-27.89Q-125.676-27.47 -126.046-26.52Q-126.426-25.57 -126.586-24.02Q-126.746-22.48 -126.746-20.2L-126.746-20.2L-126.746-12.26Q-126.746-9.98 -126.586-8.45Q-126.426-6.91 -126.046-5.98Q-125.676-5.04 -125.096-4.63Q-124.526-4.22 -123.676-4.22ZM-101.461 0.35L-101.461 0.35Q-102.491 0.35 -103.561 0.19Q-104.621 0.02 -105.621-0.49Q-106.621-1.01 -107.501-1.97Q-108.371-2.93 -109.031-4.5Q-109.691-6.07 -110.061-8.37Q-110.441-10.66 -110.441-13.85L-110.441-13.85L-110.441-18.91Q-110.441-22.05 -110.051-24.29Q-109.661-26.53 -109.001-28.05Q-108.331-29.58 -107.441-30.48Q-106.551-31.38 -105.551-31.86Q-104.551-32.34 -103.501-32.5Q-102.441-32.65 -101.441-32.65L-101.441-32.65Q-100.481-32.65 -99.441-32.51Q-98.411-32.37 -97.431-31.91Q-96.441-31.45 -95.571-30.55Q-94.691-29.65 -94.021-28.13Q-93.351-26.6 -92.961-24.34Q-92.581-22.08 -92.581-18.91L-92.581-18.91L-92.581-13.85Q-92.581-10.71 -92.981-8.44Q-93.371-6.16 -94.051-4.59Q-94.731-3.02 -95.621-2.05Q-96.511-1.08 -97.501-0.54Q-98.481 0 -99.501 0.18Q-100.521 0.35 -101.461 0.35ZM-101.411-4.22L-101.411-4.22Q-100.621-4.22 -100.071-4.63Q-99.511-5.04 -99.181-5.98Q-98.841-6.91 -98.681-8.45Q-98.531-9.98 -98.531-12.26L-98.531-12.26L-98.531-20.2Q-98.531-22.48 -98.681-24.02Q-98.841-25.57 -99.181-26.52Q-99.511-27.47 -100.071-27.89Q-100.621-28.31 -101.411-28.31L-101.411-28.31Q-102.261-28.31 -102.831-27.89Q-103.411-27.47 -103.781-26.52Q-104.161-25.57 -104.321-24.02Q-104.481-22.48 -104.481-20.2L-104.481-20.2L-104.481-12.26Q-104.481-9.98 -104.321-8.45Q-104.161-6.91 -103.781-5.98Q-103.411-5.04 -102.831-4.63Q-102.261-4.22 -101.411-4.22ZM-87.235 0L-87.235-42.63L-81.305-42.63L-81.305 0L-87.235 0ZM-56.718 0.35L-56.718 0.35Q-57.748 0.35 -58.818 0.19Q-59.878 0.02 -60.878-0.49Q-61.878-1.01 -62.758-1.97Q-63.628-2.93 -64.288-4.5Q-64.948-6.07 -65.318-8.37Q-65.698-10.66 -65.698-13.85L-65.698-13.85L-65.698-18.91Q-65.698-22.05 -65.308-24.29Q-64.918-26.53 -64.258-28.05Q-63.588-29.58 -62.698-30.48Q-61.808-31.38 -60.808-31.86Q-59.808-32.34 -58.758-32.5Q-57.698-32.65 -56.698-32.65L-56.698-32.65Q-55.738-32.65 -54.698-32.51Q-53.668-32.37 -52.688-31.91Q-51.698-31.45 -50.828-30.55Q-49.948-29.65 -49.278-28.13Q-48.608-26.6 -48.218-24.34Q-47.838-22.08 -47.838-18.91L-47.838-18.91L-47.838-13.85Q-47.838-10.71 -48.238-8.44Q-48.628-6.16 -49.308-4.59Q-49.988-3.02 -50.878-2.05Q-51.768-1.08 -52.758-0.54Q-53.738 0 -54.758 0.18Q-55.778 0.35 -56.718 0.35ZM-56.668-4.22L-56.668-4.22Q-55.878-4.22 -55.328-4.63Q-54.768-5.04 -54.438-5.98Q-54.098-6.91 -53.938-8.45Q-53.788-9.98 -53.788-12.26L-53.788-12.26L-53.788-20.2Q-53.788-22.48 -53.938-24.02Q-54.098-25.57 -54.438-26.52Q-54.768-27.47 -55.328-27.89Q-55.878-28.31 -56.668-28.31L-56.668-28.31Q-57.518-28.31 -58.088-27.89Q-58.668-27.47 -59.038-26.52Q-59.418-25.57 -59.578-24.02Q-59.738-22.48 -59.738-20.2L-59.738-20.2L-59.738-12.26Q-59.738-9.98 -59.578-8.45Q-59.418-6.91 -59.038-5.98Q-58.668-5.04 -58.088-4.63Q-57.518-4.22 -56.668-4.22ZM-41.793 0L-41.793-28.05L-44.583-28.05L-44.583-32.27L-41.793-32.27L-41.793-34.59Q-41.793-37.22 -41.253-38.87Q-40.713-40.52 -39.763-41.45Q-38.813-42.38 -37.533-42.7Q-36.253-43.03 -34.783-43.03L-34.783-43.03Q-34.363-43.03 -33.833-42.98Q-33.303-42.94 -32.773-42.83Q-32.253-42.73 -31.743-42.59Q-31.243-42.45 -30.843-42.23L-30.843-42.23L-30.843-38.06Q-31.833-38.32 -33.043-38.32L-33.043-38.32Q-33.633-38.32 -34.163-38.13Q-34.683-37.95 -35.083-37.51Q-35.483-37.08 -35.723-36.36Q-35.953-35.65 -35.953-34.59L-35.953-34.59L-35.953-32.27L-31.473-32.27L-31.473-28.05L-35.953-28.05L-35.953 0L-41.793 0ZM-8.88 0.35L-8.88 0.35Q-9.82 0.35 -10.91 0.2Q-12 0.05 -13.09-0.45Q-14.18-0.94 -15.18-1.84Q-16.17-2.74 -16.93-4.22Q-17.7-5.7 -18.15-7.86Q-18.61-10.03 -18.61-13.03L-18.61-13.03L-18.61-27.21Q-18.61-30.23 -18.14-32.38Q-17.67-34.52 -16.9-35.99Q-16.13-37.45 -15.12-38.32Q-14.11-39.19 -13.03-39.64Q-11.95-40.1 -10.89-40.24Q-9.82-40.38 -8.91-40.38L-8.91-40.38Q-6.52-40.38 -4.91-39.71Q-3.3-39.05 -2.33-37.89Q-1.36-36.73 -0.95-35.18Q-0.54-33.63 -0.54-31.9L-0.54-31.9Q-0.54-30.61 -0.67-29.52Q-0.8-28.43 -1.05-27.12L-1.05-27.12L-5.98-27.12L-5.98-29.16Q-5.98-32.46 -6.7-34.1Q-7.43-35.74 -8.84-35.74L-8.84-35.74Q-9.68-35.74 -10.31-35.41Q-10.95-35.09 -11.37-34.3Q-11.79-33.52 -12.01-32.23Q-12.23-30.94 -12.23-29.02L-12.23-29.02L-12.23-10.73Q-12.23-8.86 -12.06-7.62Q-11.88-6.38 -11.48-5.63Q-11.09-4.88 -10.44-4.56Q-9.8-4.24 -8.88-4.24L-8.88-4.24Q-8.3-4.24 -7.76-4.51Q-7.22-4.78 -6.81-5.36Q-6.4-5.93 -6.15-6.81Q-5.91-7.69 -5.91-8.88L-5.91-8.88L-5.91-12.8L-0.35-12.8L-0.35-9.09Q-0.35-4.27 -2.55-1.97Q-4.76 0.33 -8.88 0.35ZM 12.188 0.35L 12.188 0.35Q 11.158 0.35  10.088 0.19Q 9.028 0.02  8.028-0.49Q 7.028-1.01  6.148-1.97Q 5.278-2.93  4.618-4.5Q 3.958-6.07  3.588-8.37Q 3.208-10.66  3.208-13.85L 3.208-13.85L 3.208-18.91Q 3.208-22.05  3.598-24.29Q 3.988-26.53  4.648-28.05Q 5.318-29.58  6.208-30.48Q 7.098-31.38  8.098-31.86Q 9.098-32.34  10.148-32.5Q 11.208-32.65  12.208-32.65L 12.208-32.65Q 13.168-32.65  14.208-32.51Q 15.238-32.37  16.218-31.91Q 17.208-31.45  18.078-30.55Q 18.958-29.65  19.628-28.13Q 20.298-26.6  20.688-24.34Q 21.068-22.08  21.068-18.91L 21.068-18.91L 21.068-13.85Q 21.068-10.71  20.668-8.44Q 20.278-6.16  19.598-4.59Q 18.918-3.02  18.028-2.05Q 17.138-1.08  16.148-0.54Q 15.168 0  14.148 0.18Q 13.128 0.35  12.188 0.35ZM 12.238-4.22L 12.238-4.22Q 13.028-4.22  13.578-4.63Q 14.138-5.04  14.468-5.98Q 14.808-6.91  14.968-8.45Q 15.118-9.98  15.118-12.26L 15.118-12.26L 15.118-20.2Q 15.118-22.48  14.968-24.02Q 14.808-25.57  14.468-26.52Q 14.138-27.47  13.578-27.89Q 13.028-28.31  12.238-28.31L 12.238-28.31Q 11.388-28.31  10.818-27.89Q 10.238-27.47  9.868-26.52Q 9.488-25.57  9.328-24.02Q 9.168-22.48  9.168-20.2L 9.168-20.2L 9.168-12.26Q 9.168-9.98  9.328-8.45Q 9.488-6.91  9.868-5.98Q 10.238-5.04  10.818-4.63Q 11.388-4.22  12.238-4.22ZM 26.323 0L 26.323-32.27L 30.913-32.27L 31.433-28.83L 31.433-28.8Q 32.133-29.91  32.933-30.64Q 33.723-31.38  34.583-31.83Q 35.433-32.27  36.343-32.46Q 37.243-32.65  38.133-32.65L 38.133-32.65Q 40.033-32.65  41.343-31.73Q 42.653-30.82  43.333-28.99L 43.333-28.99Q 44.043-30.05  44.823-30.75Q 45.613-31.45  46.453-31.88Q 47.293-32.3  48.163-32.47Q 49.033-32.65  49.923-32.65L 49.923-32.65Q 52.733-32.65  54.273-30.67Q 55.803-28.69  55.803-24.73L 55.803-24.73L 55.803 0L 49.873 0L 49.873-24.52Q 49.873-25.57  49.713-26.3Q 49.543-27.02  49.223-27.47Q 48.893-27.91  48.373-28.11Q 47.863-28.31  47.133-28.31L 47.133-28.31Q 46.313-28.31  45.493-27.71Q 44.673-27.12  43.993-26.06L 43.993-26.06Q 44.013-25.85  44.013-25.64Q 44.013-25.43  44.013-25.22L 44.013-25.22L 44.013 0L 38.083 0L 38.083-24.52Q 38.083-25.57  37.923-26.3Q 37.753-27.02  37.433-27.47Q 37.103-27.91  36.583-28.11Q 36.073-28.31  35.343-28.31L 35.343-28.31Q 34.543-28.31  33.723-27.73Q 32.903-27.14  32.253-26.11L 32.253-26.11L 32.253 0L 26.323 0ZM 67.688-2.13L 67.878 1.83L 67.878 10.43L 61.948 10.43L 61.948-32.27L 66.588-32.27L 67.128-28.88Q 67.528-29.53  68.078-30.21Q 68.628-30.89  69.358-31.42Q 70.098-31.95  71.028-32.29Q 71.948-32.63  73.098-32.63L 73.098-32.63Q 73.598-32.63  74.288-32.53Q 74.978-32.44  75.718-32.06Q 76.448-31.69  77.188-30.95Q 77.928-30.21  78.508-28.92Q 79.078-27.63  79.438-25.71Q 79.808-23.79  79.808-21.05L 79.808-21.05L 79.808-11.27Q 79.808-8.53  79.438-6.61Q 79.078-4.69  78.488-3.4Q 77.908-2.11  77.158-1.36Q 76.408-0.61  75.628-0.23Q 74.858 0.14  74.128 0.25Q 73.408 0.35  72.868 0.35L 72.868 0.35Q 70.988 0.35  69.738-0.38Q 68.488-1.1  67.688-2.13L 67.688-2.13ZM 67.878-26.09L 67.878-6.59Q 68.058-6.12  68.328-5.7Q 68.598-5.27  68.968-4.95Q 69.328-4.62  69.788-4.42Q 70.238-4.22  70.848-4.22L 70.848-4.22Q 71.508-4.22  72.048-4.46Q 72.588-4.71  72.988-5.36Q 73.378-6  73.608-7.15Q 73.828-8.3  73.828-10.1L 73.828-10.1L 73.828-22.45Q 73.828-24.26  73.608-25.39Q 73.378-26.53  72.998-27.19Q 72.608-27.84  72.068-28.08Q 71.528-28.31  70.878-28.31L 70.878-28.31Q 69.748-28.31  69.038-27.64Q 68.318-26.98  67.878-26.09L 67.878-26.09ZM 85.192-7.55L 85.192-32.27L 91.122-32.27L 91.122-8.02Q 91.122-5.88  91.782-5.05Q 92.442-4.22  93.702-4.22L 93.702-4.22Q 94.592-4.22  95.442-4.71Q 96.282-5.2  96.962-6.12L 96.962-6.12L 96.962-32.27L 102.892-32.27L 102.892 0L 98.372 0L 97.782-3.45L 97.762-3.45Q 97.052-2.34  96.272-1.61Q 95.482-0.87  94.632-0.43Q 93.772 0  92.882 0.19Q 91.992 0.38  91.102 0.38L 91.102 0.38Q 88.262 0.38  86.732-1.59Q 85.192-3.56  85.192-7.55L 85.192-7.55ZM 109.761-8.04L 109.761-28.05L 107.251-28.05L 107.251-32.27L 110.271-32.27L 111.471-40.64L 115.691-40.64L 115.691-32.27L 120.841-32.27L 120.841-28.05L 115.691-28.05L 115.691-7.52Q 115.691-6.47  115.891-5.82Q 116.081-5.18  116.441-4.82Q 116.791-4.45  117.261-4.34Q 117.731-4.22  118.241-4.22L 118.241-4.22Q 119.111-4.22  119.781-4.43Q 120.441-4.64  121.051-5.02L 121.051-5.02L 121.051-1.73Q 120.541-1.1  119.941-0.7Q 119.341-0.3  118.711-0.06Q 118.081 0.19  117.421 0.28Q 116.761 0.38  116.131 0.38L 116.131 0.38Q 114.891 0.38  113.741 0.05Q 112.591-0.28  111.701-1.21Q 110.811-2.13  110.281-3.77Q 109.761-5.41  109.761-8.04L 109.761-8.04ZM 132.682 0.35L 132.682 0.35Q 130.592 0.35  128.992-0.42Q 127.382-1.2  126.282-2.84Q 125.182-4.48  124.622-7.04Q 124.052-9.61  124.052-13.22L 124.052-13.22L 124.052-19.31Q 124.052-22.38  124.512-24.57Q 124.972-26.77  125.712-28.25Q 126.442-29.74  127.422-30.61Q 128.392-31.48  129.422-31.93Q 130.452-32.39  131.472-32.52Q 132.492-32.65  133.362-32.65L 133.362-32.65Q 134.952-32.65  136.432-32.17Q 137.902-31.69  139.032-30.53Q 140.152-29.37  140.822-27.42Q 141.492-25.48  141.492-22.57L 141.492-22.57Q 141.492-21.59  141.432-20.58Q 141.372-19.57  141.282-18.6Q 141.192-17.63  141.032-16.71Q 140.882-15.8  140.722-15.02L 140.722-15.02L 130.012-15.02L 130.012-11.74Q 130.012-9.63  130.172-8.19Q 130.332-6.75  130.722-5.87Q 131.112-4.99  131.782-4.61Q 132.442-4.22  133.452-4.22L 133.452-4.22Q 133.992-4.22  134.512-4.44Q 135.022-4.66  135.412-5.18Q 135.802-5.7  136.032-6.55Q 136.262-7.41  136.262-8.67L 136.262-8.67L 136.262-9.68L 141.212-9.68L 141.212-8.44Q 141.212-3.84  139.022-1.75Q 136.832 0.35  132.682 0.35ZM 130.012-19.01L 135.962-19.01Q 135.982-19.27  136.012-19.7Q 136.032-20.13  136.042-20.6Q 136.052-21.07  136.052-21.53Q 136.052-21.98  136.052-22.31L 136.052-22.31Q 136.052-25.5  135.302-26.91Q 134.552-28.31  133.082-28.31L 133.082-28.31Q 132.302-28.31  131.722-27.95Q 131.132-27.59  130.762-26.73Q 130.382-25.88  130.192-24.47Q 130.012-23.06  130.012-20.98L 130.012-20.98L 130.012-19.01ZM 146.511 0L 146.511-32.27L 150.841-32.27L 151.361-28.99Q 152.341-30.82  153.621-31.73Q 154.901-32.65  156.231-32.65L 156.231-32.65Q 158.791-32.65  160.011-31.08Q 161.231-29.51  161.231-26.37L 161.231-26.37Q 161.231-25.97  161.171-25.42Q 161.111-24.87  161.001-24.27Q 160.901-23.67  160.751-23.07Q 160.591-22.48  160.431-21.98L 160.431-21.98L 156.301-21.98L 156.301-24.98Q 156.301-25.97  156.171-26.6Q 156.051-27.23  155.841-27.62Q 155.621-28.01  155.341-28.16Q 155.061-28.31  154.731-28.31L 154.731-28.31Q 154.031-28.31  153.431-27.86Q 152.841-27.4  152.441-26.58L 152.441-26.58L 152.441 0L 146.511 0ZM 174.075-8.11L 174.075-8.11Q 174.075-9.4  174.225-10.49Q 174.375-11.58  174.675-12.84L 174.675-12.84L 179.395-12.84L 179.395-10.9Q 179.395-9.28  179.585-8.04Q 179.785-6.8  180.245-5.94Q 180.705-5.09  181.465-4.65Q 182.225-4.22  183.325-4.22L 183.325-4.22Q 185.065-4.22  185.975-5.17Q 186.895-6.12  186.895-7.95L 186.895-7.95Q 186.895-8.88  186.765-9.67Q 186.635-10.45  186.315-11.23Q 185.995-12  185.465-12.86Q 184.925-13.71  184.075-14.77L 184.075-14.77L 177.745-22.29Q 176.065-24.45  175.145-26.64Q 174.235-28.83  174.235-31.31L 174.235-31.31Q 174.235-33.3  174.855-34.97Q 175.475-36.63  176.645-37.84Q 177.825-39.05  179.545-39.71Q 181.265-40.38  183.445-40.38L 183.445-40.38Q 186.095-40.38  187.865-39.63Q 189.635-38.88  190.685-37.66Q 191.745-36.45  192.175-34.93Q 192.605-33.42  192.605-31.9L 192.605-31.9Q 192.605-30.61  192.405-29.52Q 192.215-28.43  191.955-27.12L 191.955-27.12L 187.265-27.12L 187.265-29.02Q 187.265-32.2  186.355-33.9Q 185.435-35.6  183.375-35.6L 183.375-35.6Q 181.665-35.6  180.825-34.65Q 179.975-33.7  179.975-32.11L 179.975-32.11Q 179.975-31.27  180.105-30.59Q 180.235-29.91  180.485-29.33Q 180.725-28.76  181.075-28.22Q 181.425-27.68  181.875-27.09L 181.875-27.09L 188.925-18.56Q 190.855-16.05  191.885-13.75Q 192.915-11.44  192.915-8.86L 192.915-8.86Q 192.915-6.73  192.245-5.02Q 191.575-3.3  190.335-2.11Q 189.095-0.91  187.335-0.27Q 185.575 0.38  183.375 0.38L 183.375 0.38Q 180.655 0.38  178.865-0.35Q 177.075-1.08  176.005-2.27Q 174.935-3.47  174.505-4.99Q 174.075-6.52  174.075-8.11ZM 205.172 0.35L 205.172 0.35Q 201.092 0.35  198.952-3Q 196.802-6.35  196.802-13.22L 196.802-13.22L 196.802-19.31Q 196.802-22.38  197.252-24.57Q 197.692-26.77  198.432-28.25Q 199.172-29.74  200.122-30.61Q 201.072-31.48  202.082-31.93Q 203.082-32.39  204.072-32.52Q 205.052-32.65  205.872-32.65L 205.872-32.65Q 207.512-32.65  208.872-32.21Q 210.232-31.78  211.222-30.9Q 212.202-30.02  212.742-28.69Q 213.282-27.35  213.282-25.55L 213.282-25.55Q 213.282-24.42  213.172-23.61Q 213.072-22.8  212.882-22.05L 212.882-22.05L 208.152-22.05L 208.152-23.13Q 208.152-25.57  207.572-26.94Q 207.002-28.31  205.692-28.31L 205.692-28.31Q 204.962-28.31  204.422-27.97Q 203.882-27.63  203.522-26.81Q 203.152-25.99  202.982-24.61Q 202.802-23.23  202.802-21.14L 202.802-21.14L 202.802-11.98Q 202.802-9.87  202.942-8.39Q 203.082-6.91  203.442-5.99Q 203.792-5.06  204.372-4.64Q 204.962-4.22  205.832-4.22L 205.832-4.22Q 206.272-4.22  206.692-4.44Q 207.122-4.66  207.432-5.18Q 207.752-5.7  207.952-6.55Q 208.152-7.41  208.152-8.67L 208.152-8.67L 208.152-9.68L 213.262-9.68L 213.262-8.44Q 213.262-3.84  211.232-1.75Q 209.202 0.35  205.172 0.35ZM 221.226-36.89L 221.226-36.89Q 219.586-36.89  218.636-37.88Q 217.686-38.86  217.686-40.76L 217.686-40.76Q 217.686-41.81  217.936-42.53Q 218.176-43.24  218.636-43.68Q 219.096-44.11  219.746-44.31Q 220.406-44.51  221.246-44.51L 221.246-44.51Q 223.006-44.51  223.926-43.62Q 224.836-42.73  224.836-40.76L 224.836-40.76Q 224.836-38.93  223.906-37.91Q 222.986-36.89  221.226-36.89ZM 218.156 0L 218.156-32.27L 224.086-32.27L 224.086 0L 218.156 0ZM 238.057 0.35L 238.057 0.35Q 235.967 0.35  234.367-0.42Q 232.757-1.2  231.657-2.84Q 230.557-4.48  229.997-7.04Q 229.427-9.61  229.427-13.22L 229.427-13.22L 229.427-19.31Q 229.427-22.38  229.887-24.57Q 230.347-26.77  231.087-28.25Q 231.817-29.74  232.797-30.61Q 233.767-31.48  234.797-31.93Q 235.827-32.39  236.847-32.52Q 237.867-32.65  238.737-32.65L 238.737-32.65Q 240.327-32.65  241.807-32.17Q 243.277-31.69  244.407-30.53Q 245.527-29.37  246.197-27.42Q 246.867-25.48  246.867-22.57L 246.867-22.57Q 246.867-21.59  246.807-20.58Q 246.747-19.57  246.657-18.6Q 246.567-17.63  246.407-16.71Q 246.257-15.8  246.097-15.02L 246.097-15.02L 235.387-15.02L 235.387-11.74Q 235.387-9.63  235.547-8.19Q 235.707-6.75  236.097-5.87Q 236.487-4.99  237.157-4.61Q 237.817-4.22  238.827-4.22L 238.827-4.22Q 239.367-4.22  239.887-4.44Q 240.397-4.66  240.787-5.18Q 241.177-5.7  241.407-6.55Q 241.637-7.41  241.637-8.67L 241.637-8.67L 241.637-9.68L 246.587-9.68L 246.587-8.44Q 246.587-3.84  244.397-1.75Q 242.207 0.35  238.057 0.35ZM 235.387-19.01L 241.337-19.01Q 241.357-19.27  241.387-19.7Q 241.407-20.13  241.417-20.6Q 241.427-21.07  241.427-21.53Q 241.427-21.98  241.427-22.31L 241.427-22.31Q 241.427-25.5  240.677-26.91Q 239.927-28.31  238.457-28.31L 238.457-28.31Q 237.677-28.31  237.097-27.95Q 236.507-27.59  236.137-26.73Q 235.757-25.88  235.567-24.47Q 235.387-23.06  235.387-20.98L 235.387-20.98L 235.387-19.01ZM 251.886 0L 251.886-32.27L 256.456-32.27L 256.996-28.83L 256.996-28.8Q 257.696-29.91  258.506-30.64Q 259.316-31.38  260.176-31.83Q 261.046-32.27  261.946-32.46Q 262.856-32.65  263.746-32.65L 263.746-32.65Q 266.576-32.65  268.116-30.67Q 269.646-28.69  269.646-24.73L 269.646-24.73L 269.646 0L 263.716 0L 263.716-24.52Q 263.716-26.65  263.066-27.48Q 262.406-28.31  261.136-28.31L 261.136-28.31Q 260.246-28.31  259.376-27.73Q 258.496-27.14  257.816-26.11L 257.816-26.11L 257.816 0L 251.886 0ZM 283.312 0.35L 283.312 0.35Q 279.232 0.35  277.092-3Q 274.942-6.35  274.942-13.22L 274.942-13.22L 274.942-19.31Q 274.942-22.38  275.392-24.57Q 275.832-26.77  276.572-28.25Q 277.312-29.74  278.262-30.61Q 279.212-31.48  280.222-31.93Q 281.222-32.39  282.212-32.52Q 283.192-32.65  284.012-32.65L 284.012-32.65Q 285.652-32.65  287.012-32.21Q 288.372-31.78  289.362-30.9Q 290.342-30.02  290.882-28.69Q 291.422-27.35  291.422-25.55L 291.422-25.55Q 291.422-24.42  291.312-23.61Q 291.212-22.8  291.022-22.05L 291.022-22.05L 286.292-22.05L 286.292-23.13Q 286.292-25.57  285.712-26.94Q 285.142-28.31  283.832-28.31L 283.832-28.31Q 283.102-28.31  282.562-27.97Q 282.022-27.63  281.662-26.81Q 281.292-25.99  281.122-24.61Q 280.942-23.23  280.942-21.14L 280.942-21.14L 280.942-11.98Q 280.942-9.87  281.082-8.39Q 281.222-6.91  281.582-5.99Q 281.932-5.06  282.512-4.64Q 283.102-4.22  283.972-4.22L 283.972-4.22Q 284.412-4.22  284.832-4.44Q 285.262-4.66  285.572-5.18Q 285.892-5.7  286.092-6.55Q 286.292-7.41  286.292-8.67L 286.292-8.67L 286.292-9.68L 291.402-9.68L 291.402-8.44Q 291.402-3.84  289.372-1.75Q 287.342 0.35  283.312 0.35ZM 303.986 0.35L 303.986 0.35Q 301.896 0.35  300.296-0.42Q 298.686-1.2  297.586-2.84Q 296.486-4.48  295.926-7.04Q 295.356-9.61  295.356-13.22L 295.356-13.22L 295.356-19.31Q 295.356-22.38  295.816-24.57Q 296.276-26.77  297.016-28.25Q 297.746-29.74  298.726-30.61Q 299.696-31.48  300.726-31.93Q 301.756-32.39  302.776-32.52Q 303.796-32.65  304.666-32.65L 304.666-32.65Q 306.256-32.65  307.736-32.17Q 309.206-31.69  310.336-30.53Q 311.456-29.37  312.126-27.42Q 312.796-25.48  312.796-22.57L 312.796-22.57Q 312.796-21.59  312.736-20.58Q 312.676-19.57  312.586-18.6Q 312.496-17.63  312.336-16.71Q 312.186-15.8  312.026-15.02L 312.026-15.02L 301.316-15.02L 301.316-11.74Q 301.316-9.63  301.476-8.19Q 301.636-6.75  302.026-5.87Q 302.416-4.99  303.086-4.61Q 303.746-4.22  304.756-4.22L 304.756-4.22Q 305.296-4.22  305.816-4.44Q 306.326-4.66  306.716-5.18Q 307.106-5.7  307.336-6.55Q 307.566-7.41  307.566-8.67L 307.566-8.67L 307.566-9.68L 312.516-9.68L 312.516-8.44Q 312.516-3.84  310.326-1.75Q 308.136 0.35  303.986 0.35ZM 301.316-19.01L 307.266-19.01Q 307.286-19.27  307.316-19.7Q 307.336-20.13  307.346-20.6Q 307.356-21.07  307.356-21.53Q 307.356-21.98  307.356-22.31L 307.356-22.31Q 307.356-25.5  306.606-26.91Q 305.856-28.31  304.386-28.31L 304.386-28.31Q 303.606-28.31  303.026-27.95Q 302.436-27.59  302.066-26.73Q 301.686-25.88  301.496-24.47Q 301.316-23.06  301.316-20.98L 301.316-20.98L 301.316-19.01ZM 316.056 7.66L 318.396-8.2L 324.426-8.2L 320.996 7.66L 316.056 7.66ZM 349.081 0.35L 349.081 0.35Q 348.141 0.35  347.051 0.2Q 345.961 0.05  344.871-0.45Q 343.781-0.94  342.781-1.84Q 341.791-2.74  341.031-4.22Q 340.261-5.7  339.811-7.86Q 339.351-10.03  339.351-13.03L 339.351-13.03L 339.351-27.21Q 339.351-30.23  339.821-32.38Q 340.291-34.52  341.061-35.99Q 341.831-37.45  342.841-38.32Q 343.851-39.19  344.931-39.64Q 346.011-40.1  347.071-40.24Q 348.141-40.38  349.051-40.38L 349.051-40.38Q 351.441-40.38  353.051-39.71Q 354.661-39.05  355.631-37.89Q 356.601-36.73  357.011-35.18Q 357.421-33.63  357.421-31.9L 357.421-31.9Q 357.421-30.61  357.291-29.52Q 357.161-28.43  356.911-27.12L 356.911-27.12L 351.981-27.12L 351.981-29.16Q 351.981-32.46  351.261-34.1Q 350.531-35.74  349.121-35.74L 349.121-35.74Q 348.281-35.74  347.651-35.41Q 347.011-35.09  346.591-34.3Q 346.171-33.52  345.951-32.23Q 345.731-30.94  345.731-29.02L 345.731-29.02L 345.731-10.73Q 345.731-8.86  345.901-7.62Q 346.081-6.38  346.481-5.63Q 346.871-4.88  347.521-4.56Q 348.161-4.24  349.081-4.24L 349.081-4.24Q 349.661-4.24  350.201-4.51Q 350.741-4.78  351.151-5.36Q 351.561-5.93  351.811-6.81Q 352.051-7.69  352.051-8.88L 352.051-8.88L 352.051-12.8L 357.611-12.8L 357.611-9.09Q 357.611-4.27  355.411-1.97Q 353.201 0.33  349.081 0.35ZM 369.019 1.69L 369.019 0.12Q 367.689-0.14  366.349-0.87Q 365.019-1.59  363.939-3.09Q 362.859-4.59  362.189-7Q 361.519-9.4  361.519-13.03L 361.519-13.03L 361.519-27.21Q 361.519-30.23  362.009-32.38Q 362.489-34.52  363.279-35.99Q 364.079-37.45  365.099-38.32Q 366.119-39.19  367.229-39.64Q 368.349-40.1  369.449-40.24Q 370.549-40.38  371.489-40.38L 371.489-40.38Q 372.379-40.38  373.469-40.25Q 374.559-40.13  375.649-39.69Q 376.739-39.26  377.769-38.4Q 378.799-37.55  379.599-36.08Q 380.389-34.62  380.869-32.45Q 381.349-30.28  381.349-27.21L 381.349-27.21L 381.349-13.03Q 381.349-9.56  380.699-7.21Q 380.039-4.85  378.999-3.35Q 377.949-1.85  376.679-1.07Q 375.399-0.28  374.129 0.02L 374.129 0.02L 374.129 0.38Q 374.129 1.52  374.399 2.23Q 374.669 2.93  375.199 3.32Q 375.729 3.7  376.509 3.83Q 377.299 3.96  378.329 3.96L 378.329 3.96Q 378.659 3.96  378.989 3.96Q 379.309 3.96  379.599 3.94L 379.599 3.94L 379.599 7.22Q 378.449 7.73  377.439 7.92Q 376.429 8.11  375.309 8.11L 375.309 8.11Q 374.809 8.11  374.159 8.05Q 373.499 7.99  372.799 7.77Q 372.099 7.55  371.429 7.14Q 370.759 6.73  370.219 6.01Q 369.679 5.3  369.349 4.24Q 369.019 3.19  369.019 1.69L 369.019 1.69ZM 371.489-4.22L 371.489-4.22Q 372.379-4.22  373.039-4.52Q 373.709-4.83  374.149-5.58Q 374.579-6.33  374.799-7.56Q 375.019-8.79  375.019-10.66L 375.019-10.66L 375.019-28.88Q 375.019-30.8  374.799-32.09Q 374.579-33.38  374.149-34.16Q 373.709-34.95  373.039-35.27Q 372.379-35.6  371.489-35.6L 371.489-35.6Q 370.569-35.6  369.889-35.27Q 369.209-34.95  368.769-34.16Q 368.319-33.38  368.099-32.09Q 367.879-30.8  367.879-28.88L 367.879-28.88L 367.879-10.66Q 367.879-8.79  368.099-7.56Q 368.319-6.33  368.769-5.58Q 369.209-4.83  369.889-4.52Q 370.569-4.22  371.489-4.22ZM 387.186-12.3L 387.186-40.03L 393.306-40.03L 393.306-10.69Q 393.306-8.81  393.496-7.57Q 393.676-6.33  394.086-5.59Q 394.496-4.85  395.146-4.54Q 395.786-4.22  396.676-4.22L 396.676-4.22Q 397.566-4.22  398.236-4.54Q 398.906-4.85  399.336-5.59Q 399.776-6.33  399.996-7.57Q 400.216-8.81  400.216-10.69L 400.216-10.69L 400.216-40.03L 406.266-40.03L 406.266-12.3Q 406.266-9.38  405.796-7.29Q 405.326-5.2  404.556-3.8Q 403.786-2.39  402.786-1.57Q 401.786-0.75  400.726-0.32Q 399.656 0.12  398.606 0.23Q 397.546 0.35  396.676 0.35L 396.676 0.35Q 395.816 0.35  394.766 0.23Q 393.726 0.12  392.676-0.32Q 391.616-0.75  390.636-1.57Q 389.646-2.39  388.876-3.8Q 388.106-5.2  387.646-7.28Q 387.186-9.35  387.186-12.3L 387.186-12.3ZM 412.967 0L 412.967-40.03L 419.037-40.03Q 420.187-40.03  421.557-39.93Q 422.927-39.82  424.297-39.43Q 425.677-39.05  426.947-38.25Q 428.227-37.45  429.207-36.08Q 430.197-34.71  430.797-32.65Q 431.387-30.59  431.387-27.63L 431.387-27.63L 431.387-26.23Q 431.387-23.02  430.837-20.73Q 430.287-18.45  429.377-16.89Q 428.457-15.33  427.257-14.39Q 426.047-13.45  424.747-12.97Q 423.447-12.49  422.117-12.34Q 420.797-12.19  419.627-12.19L 419.627-12.19L 419.037-12.19L 419.037 0L 412.967 0ZM 419.037-16.64L 419.347-16.64Q 420.987-16.64  422.107-17.12Q 423.237-17.6  423.907-18.62Q 424.567-19.64  424.867-21.25Q 425.157-22.85  425.157-25.1L 425.157-25.1L 425.157-28.71Q 425.157-30.49  424.897-31.79Q 424.637-33.09  423.977-33.94Q 423.307-34.78  422.177-35.19Q 421.057-35.6  419.347-35.6L 419.347-35.6L 419.037-35.6L 419.037-16.64ZM 439.692 0L 439.692-35.25L 433.243-35.25L 433.243-40.03L 452.183-40.03L 452.183-35.25L 445.762-35.25L 445.762 0L 439.692 0Z"></path>
      </svg>